<svg height="249.217525" viewBox="-.8663898 -.8663898 49.3265796 30.6124396" width="401.25589" xmlns="http://www.w3.org/2000/svg"><g transform="translate(-351.2031 -517.92235)"><path d="m371.79685 535.39571.03125 5.25c-.55865-.5525-1.31263-.9063-2.125-.9063-1.73879 0-3.15625 1.5663-3.15625 3.4688-.00002 1.9038 1.41744 3.4375 3.15625 3.4375.82255-.0001 1.56378-.3424 2.125-.9063v.7188h2.09375v-11.0625zm21.34375 0v11.0937h2.09375v-11.0937zm3.5625 0v11.0937h2.0938v-11.0937zm-45.5.5313v10.5312h2.25v-8.75l1.15625.0312c.82748 0 1.43752.6126 1.4375 1.375 0 .7625-.6725 1.3751-1.5 1.375h-.5v2.5313l2.21875 3.4375h2.65625l-3.09375-4.4062c1.3887-.3325 2.40624-1.5663 2.40625-3.0313 0-1.7213-1.40252-3.0938-3.15625-3.0937-.05379 0-.10255-.0026-.15625 0zm25.59375.0624v10.5l4.65625-.0312c1.7827-.0288 3.21875-1.3799 3.21875-3.0312-.00003-1.2-.42377-2.0276-1.84375-2.6876.57632-.5376.9375-1.27.9375-2.0624.00003-.7176-.29876-1.3888-.78125-1.9063-.50374-.5525-1.39242-.7813-2.59375-.7813zm2.25 1.8126h1.40625c.61752 0 1.125.5074 1.125 1.125-.00002.6161-.50748 1.0937-1.125 1.0937h-.71875v1.9063h1.3125c.74751 0 1.34375.5962 1.34375 1.3437-.02061.5803-.30394 1.0425-.78125 1.25-.1591.0692-.35938.1125-.5625.125h-2zm-16.875 1.8437c-1.9226.0001-3.5 1.5851-3.5 3.5313-.00002 1.9462 1.57739 3.5312 3.5 3.5312 1.46745 0 2.59744-.6775 3.1875-1.7188l-1.71875-.7812c-.21753.4712-.71879.8125-1.3125.8125-.79122 0-1.4375-.5875-1.4375-1.3125.00001-.0463-.00495-.0475 0-.0938h4.65625c.01372-.1437.0013-.2862 0-.4374.0325-2.28-1.45262-3.5313-3.375-3.5313zm23.21875.375v4.1875c0 .8891.5943 1.6932 1.46875 2.1562.17489.0927.36583.1536.5625.2188.39334.1304.82719.2188 1.28125.2188 1.81498-.0001 3.28125-1.1713 3.28125-2.5938v-4.1875h-2.0625l-.03125 3.8125c-.00002.6325-.52368 1.125-1.1875 1.125-.66499 0-1.21875-.4926-1.21875-1.125l.03125-3.8125zm-23.21875 1.0937c.71015 0 1.28125.6013 1.28125 1.3126h-2.5625c-.00002-.7112.57004-1.3126 1.28125-1.3126zm8.125.3438c.85368.0001 1.5625.7525 1.5625 1.6875.00002.9349-.70885 1.7187-1.5625 1.7187-.32017.0001-.62843-.13-.875-.3124-.08219-.0609-.14887-.111-.21875-.1876-.27953-.3062-.4375-.7512-.4375-1.2187-.00002-.935.67744-1.6875 1.53125-1.6875z" fill="#e30f4d"/><path d="m381.0448 521.04755c.02754.03373.06004.08248.06004.08248.19875-.14618.37995-.30243.61745-.36248.37629-.10116.9063.09873 1.28243.35004.18508.13252.34386.29755.495.47501.11886.12626.29753.12626.44883.1725.43617.08499.83252.24368 1.20117.48119.25757.15259.4625.42876.76012.46875.36246.06004.69991.17882 1.01623.36255.37621.25122.7399.55496 1.18118.64125.92385.0988 1.68382.61996 2.41632 1.12869.42868.24376.9175.5413 1.43996.35628.14504-.06621.26375-.19126.31631-.33622.04616-.3437-.16501-.60745-.38254-.85876-.44875-.51499-1.2075-.95124-1.12258-1.71624.06135-.55251.74623-.885 1.23512-1.04248.27-.10002.56748-.07247.80116-.28.10384-.09376.2488-.32378.37995-.25505.11139.05753.17128.29008.1976.46258.07248.54122-.04631 1.08245-.53375 1.39244-.23125.14496-.48875.21126-.75371.26375.41.33622.79865.7325 1.02996 1.18881.13245.26375.21119.50125.23118.81122-.01365.57497-.36995 1.07622-.86494 1.37375-.29007.15748-.61997.21744-.97001.21119-.13244-.00747-.25131-.03372-.3762-.03372.05249.27122.05989.64125-.00626.9375-.02007.15877-.12627.32997-.11253.51506.07255.09239.18501.09872.29746.09872.25628.00748.55383-.01251.68628.25124.11871.24498.15869.45371.24879.7.01861.04745.11627.21125.16746.16373.17129-.15878.33257-.38003.56747-.27619.02503.01121.16999.13749.69.50872.07379.05249.08867.1387.09507.23118.19875.07881.43625.21751.50126.43502.04737.14627.01999.30503.05996.4438.06623.15878.2787.47128.10254.56123l-.08263.03997-.73242.22378c-.06623-.00626-.12619-.0325-.1651-.09248-.38986-.01876-.84488.10003-1.1486-.17753-.13886-.11245-.2388-.25749-.33753-.39619-.22377.12489-.56.19745-.79255.04622-.48117-.3775-.97-.73378-1.60995-.72127-.28373.0663-.64002.14495-.91758.01372-.26375-.19248-.58113-.29128-.79865-.56747-.30373-.32379-.31753-.71503-.41633-1.11748l-.00749-.01625c-.41.11247-.86997.06372-1.29241.03747-.35004-.01374-.68009.0325-.99762.10506-.40238.08621-.84488.11245-1.27365.09994l-.205.15747c.09247.02624.19867.02006.27115.08629l.07873.08621c.34997.0325.74013-.02746 1.0701.065.07874.02754.15252.07378.19127.15374.05997.1226.02991.2475-.01373.32249-.14382.24627-.26375.50758-.495.69252-.065.07248-.2375-.01251-.25001.11254-.08004.3437-.39628.63499-.7338.70755-.13748.02616-.28374-.00634-.4087-.04631-.39628-.1387-.81254-.25124-1.22124-.3563-.13879-.0399-.24376-.1725-.36255-.25872-.17876-.00617-.41634.05998-.54879-.09872-.09246-.08629-.19126-.28381-.19745-.29129-.37002.4625-.7862.92629-1.25495 1.32248-1.95381 1.65627-4.87755 2.1975-7.34001 1.30631-1.36002-.46875-2.60636-1.35873-3.59131-2.70126 0 0-.15495.4087-.39635.45631l-.60738.08621c-.48133.205-.97.36995-1.45881.5487-.29.06623-.61371.00634-.82489-.17875-.1651-.14496-.25757-.31869-.37003-.48996-.05004-.075-.2626-.02503-.36507-.0325-.05378-.00374-.13366-.0737-.18241-.15876l-.4226-.7c-.06874-.14497-.0399-.23125.00634-.3225.08621-.15869.25871-.21874.42251-.2388.29748-.03494.65995-.12489.95124.00755.13862-.15869.34996-.13244.54122-.1725l.01878-.00625c-.09255-.09873-.21753-.16503-.3164-.26375-.55496.13122-1.1811.04631-1.71615-.06004-.495-.11871-.92499.1725-1.41244.0988 0 0-.11131.28869-.18127.44127-.10879.23622-.2275.54498-.56503.72747-.2137.1162-.44251.23125-.65995.34371-.39009.205-.91125.12504-1.32004.04005-.16501-.01381-.29746-.00748-.4425.05249-.14496.09872-.31883.29877-.46752.40871-.15999.11879-.42374.29625-.70123.2726-.16746-.01511-.37627-.11505-.43502-.08378-.04128.02243-.3112.58503-.62744.67124-.31754.08629-.69375.01999-.99762-.05257-.09239.03883-.15739.12505-.26993.09881-.21126-.0525-.42251-.11246-.61379-.225-.07995-.07255-.09246-.16503-.11253-.25749.00633-.13877.10498-.25131.1651-.37002.02617-.14497.01236-.32379.07873-.45624.10003-.21751.31747-.34379.51499-.44251.02625-.15122.12879-.28625.25116-.36254.24887-.15496.52139-.44869.8451-.26375l.34249.29625c.2137-.1075.22004-.30869.38376-.68619.07125-.16502.1725-.34126.3762-.37002.14878-.02.32754.00495.42634-.01627.09499-.01998.43746-.15868.48248-.20003.0525-.04745.06752-.11749.04875-.16495-.2301-.58747-.24498-.83999-.26512-1.2825-.33615.03372-.71861.09247-1.06865.02625-.54871-.085-1.06255-.50752-1.26755-1.02875-.23742-.52247-.1387-1.24123.2375-1.68374.28382-.34378.61379-.65376.95757-.9175-.11253-.0338-.25139-.02625-.36377-.0525-.50758-.07995-.99632-.52879-1.10878-1.02379-.07873-.32996-.00618-.63377.1513-.91125.05371-.05875.11252-.11246.20485-.07874.24505.0988.38131.25628.69251.40123.31136.14626 1.49254.24506 1.73012 1.01754.15869.60745-.15496 1.00006-.61005 1.34376-.34377.24376-.70503.54252-.88622.89752-.12635.24994-.06135.63493.15625.83497.25505.23506.64125.22498.93131.11246.54749-.2237 1.03623-.58121 1.51871-.94994.4612-.34379.90378-.47624 1.48499-.49377.23246-.00748.62751-.18128.84121-.35249.39009-.31128.74257-.62629 1.2188-.73875.2037-.04631.42869-.05249.64003-.08629.16487-.07874.28366-.27619.4287-.38246.62744-.54756 1.48499-.5413 2.15247-.97625.38247-.29755.80505-.48875 1.31379-.4625.23116.01251.40619.03746.59868.12252 0 0 .02753.00253.03502-.01755 1.36001-1.76253 3.26133-2.75878 5.39879-2.94997 1.64505-.13253 3.16254.26375 4.47631 1.02996.83245.495 1.595 1.17623 2.18873 1.97503z" fill="#fbbf15"/><path d="m381.0448 521.04755c.02754.03373.06004.08248.06004.08248.19875-.14618.37995-.30243.61745-.36248.37629-.10116.9063.09873 1.28243.35004.18508.13252.34386.29755.495.47501.11886.12626.29753.12626.44883.1725.43617.08499.83252.24368 1.20117.48119.25757.15259.4625.42876.76012.46875.36246.06004.69991.17882 1.01623.36255.37621.25122.7399.55496 1.18118.64125.92385.0988 1.68382.61996 2.41632 1.12869.42868.24376.9175.5413 1.43996.35628.14504-.06621.26375-.19126.31631-.33622.04616-.3437-.16501-.60745-.38254-.85876-.44875-.51499-1.2075-.95124-1.12258-1.71624.06135-.55251.74623-.885 1.23512-1.04248.27-.10002.56748-.07247.80116-.28.10384-.09376.2488-.32378.37995-.25505.11139.05753.17128.29008.1976.46258.07248.54122-.04631 1.08245-.53375 1.39244-.23125.14496-.48875.21126-.75371.26375.41.33622.79865.7325 1.02996 1.18881.13245.26375.21119.50125.23118.81122-.01365.57497-.36995 1.07622-.86494 1.37375-.29007.15748-.61997.21744-.97001.21119-.13244-.00747-.25131-.03372-.3762-.03372.05249.27122.05989.64125-.00626.9375-.02007.15877-.12627.32997-.11253.51506.07255.09239.18501.09872.29746.09872.25628.00748.55383-.01251.68628.25124.11871.24498.15869.45371.24879.7.01861.04745.11627.21125.16746.16373.17129-.15878.33257-.38003.56747-.27619.02503.01121.16999.13749.69.50872.07379.05249.08867.1387.09507.23118.19875.07881.43625.21751.50126.43502.04737.14627.01999.30503.05996.4438.06623.15878.2787.47128.10254.56123l-.08263.03997-.73242.22378c-.06623-.00626-.12619-.0325-.1651-.09248-.38986-.01876-.84488.10003-1.1486-.17753-.13886-.11245-.2388-.25749-.33753-.39619-.22377.12489-.56.19745-.79255.04622-.48117-.3775-.97-.73378-1.60995-.72127-.28373.0663-.64002.14495-.91758.01372-.26375-.19248-.58113-.29128-.79865-.56747-.30373-.32379-.31753-.71503-.41633-1.11748l-.00749-.01625c-.41.11247-.86997.06372-1.29241.03747-.35004-.01374-.68009.0325-.99762.10506-.40238.08621-.84488.11245-1.27365.09994l-.205.15747c.09247.02624.19867.02006.27115.08629l.07873.08621c.34997.0325.74013-.02746 1.0701.065.07874.02754.15252.07378.19127.15374.05997.1226.02991.2475-.01373.32249-.14382.24627-.26375.50758-.495.69252-.065.07248-.2375-.01251-.25001.11254-.08004.3437-.39628.63499-.7338.70755-.13748.02616-.28374-.00634-.4087-.04631-.39628-.1387-.81254-.25124-1.22124-.3563-.13879-.0399-.24376-.1725-.36255-.25872-.17876-.00617-.41634.05998-.54879-.09872-.09246-.08629-.19126-.28381-.19745-.29129-.37002.4625-.7862.92629-1.25495 1.32248-1.95381 1.65627-4.87755 2.1975-7.34001 1.30631-1.36002-.46875-2.60636-1.35873-3.59131-2.70126 0 0-.15495.4087-.39635.45631l-.60738.08621c-.48133.205-.97.36995-1.45881.5487-.29.06623-.61371.00634-.82489-.17875-.1651-.14496-.25757-.31869-.37003-.48996-.05004-.075-.2626-.02503-.36507-.0325-.05378-.00374-.13366-.0737-.18241-.15876l-.4226-.7c-.06874-.14497-.0399-.23125.00634-.3225.08621-.15869.25871-.21874.42251-.2388.29748-.03494.65995-.12489.95124.00755.13862-.15869.34996-.13244.54122-.1725l.01878-.00625c-.09255-.09873-.21753-.16503-.3164-.26375-.55496.13122-1.1811.04631-1.71615-.06004-.495-.11871-.92499.1725-1.41244.0988 0 0-.11131.28869-.18127.44127-.10879.23622-.2275.54498-.56503.72747-.2137.1162-.44251.23125-.65995.34371-.39009.205-.91125.12504-1.32004.04005-.16501-.01381-.29746-.00748-.4425.05249-.14496.09872-.31883.29877-.46752.40871-.15999.11879-.42374.29625-.70123.2726-.16746-.01511-.37627-.11505-.43502-.08378-.04128.02243-.3112.58503-.62744.67124-.31754.08629-.69375.01999-.99762-.05257-.09239.03883-.15739.12505-.26993.09881-.21126-.0525-.42251-.11246-.61379-.225-.07995-.07255-.09246-.16503-.11253-.25749.00633-.13877.10498-.25131.1651-.37002.02617-.14497.01236-.32379.07873-.45624.10003-.21751.31747-.34379.51499-.44251.02625-.15122.12879-.28625.25116-.36254.24887-.15496.52139-.44869.8451-.26375l.34249.29625c.2137-.1075.22004-.30869.38376-.68619.07125-.16502.1725-.34126.3762-.37002.14878-.02.32754.00495.42634-.01627.09499-.01998.43746-.15868.48248-.20003.0525-.04745.06752-.11749.04875-.16495-.2301-.58747-.24498-.83999-.26512-1.2825-.33615.03372-.71861.09247-1.06865.02625-.54871-.085-1.06255-.50752-1.26755-1.02875-.23742-.52247-.1387-1.24123.2375-1.68374.28382-.34378.61379-.65376.95757-.9175-.11253-.0338-.25139-.02625-.36377-.0525-.50758-.07995-.99632-.52879-1.10878-1.02379-.07873-.32996-.00618-.63377.1513-.91125.05371-.05875.11252-.11246.20485-.07874.24505.0988.38131.25628.69251.40123.31136.14626 1.49254.24506 1.73012 1.01754.15869.60745-.15496 1.00006-.61005 1.34376-.34377.24376-.70503.54252-.88622.89752-.12635.24994-.06135.63493.15625.83497.25505.23506.64125.22498.93131.11246.54749-.2237 1.03623-.58121 1.51871-.94994.4612-.34379.90378-.47624 1.48499-.49377.23246-.00748.62751-.18128.84121-.35249.39009-.31128.74257-.62629 1.2188-.73875.2037-.04631.42869-.05249.64003-.08629.16487-.07874.28366-.27619.4287-.38246.62744-.54756 1.48499-.5413 2.15247-.97625.38247-.29755.80505-.48875 1.31379-.4625.23116.01251.40619.03746.59868.12252 0 0 .02753.00253.03502-.01755 1.36001-1.76253 3.26133-2.75878 5.39879-2.94997 1.64505-.13253 3.16254.26375 4.47631 1.02996.83245.495 1.595 1.17623 2.18873 1.97503z" fill="none" stroke="#fbbf15" stroke-miterlimit="3.864" stroke-width=".175013"/><path d="m357.87105 521.47389c.15625.03867.68619.15495.91499.40619.20996.23125.24003.65872.04501.92125-.27381.36621-.76133.69496-1.1325 1.0662-.29381.29381-.42633.69001-.31502 1.09878.11879.35752.47501.61379.84504.64125.56747.01252 1.00372-.27122 1.45866-.53497.45631-.32371.87882-.7463 1.4138-.87875.33622-.12496.74501-.08499 1.06872-.19753.34882-.12122.65384-.38253.94384-.64742.32364-.26375.67123-.42634 1.23496-.42634.27749 0 .26628-.04624.7425-.4837.43754-.40122 1.04004-.44876 1.55503-.68001.35621-.11879.66001-.3762.99624-.55504.32372-.1387.77126-.15999 1.10252-.03997.21996.07995.30999.12252.62745.33752l1.56371 1.29998c.03243.0325.07623.07255.11377.11375.06247.06622.92368 1.07506 1.28005 1.65497.11871.205.21126.50499.22125.63629.06501.88622.31998 1.66747.60372 2.44125.0238.065.23124.20371.31624.33005.24497.34241.40252.77874.79879 1.00997 0 0 .12748.065.23751.11872.03501.01877.04501.09751-.03503.1162-.42258.09255-.91255-.25368-1.08871-.57625-.205-.37239-.38384-.62867-.72631-.74745l-.01878.01876c.04624.10629.12757.20249.18624.29747.13008.21127.25131.44877.31631.66628.0737.24376.3437.4287.5613.56755l.29122.15495c.1062.0512.09002.1262.01746.14504l-.04875.00373c-.52124.01374-.96-.15128-1.31623-.53505-.08513-.09246-.19752-.17753-.32371-.17753-.2301.20386-.46127.40886-.77125.42877-.31754-.05241-.68009-.05866-.9713.06623-.26375.09255-.52757.205-.82496.21758-.13879 0-.29625-.0663-.34256-.19752 0-.16503-.12619-.36376-.01999-.53498l.19752-.29006c0-.03997-.02625-.0737-.06622-.07996-.08515-.01251-.21134.1262-.24384-.02006.01999-.29625.3038-.47493.50133-.67993.04623-.23751.13877-.44121.30365-.62622 0-.02633-.02617-.05379-.05242-.0663-.24505.03997-.49507.10497-.76637.09872-.2111.11254-.47485.19126-.72609.11254-.05256-.0325-.04012-.11003-.01876-.13879.25734-.36125.36995-.82122.28984-1.27372-.00489-.03128-.01862-.06127-.05989-.06127-.03876-.00122-.05998.04258-.06494.07378-.07506.41374-.18767.76249-.41625 1.11-.09377.1413-.44259.16502-.6675.2375-.05256.02625-.11139.07249-.11139.13871-.0074.14503.07248.26749.14252.38254 0 0 .45631.755.47508.89874.01618.12505-.0438.52002-.10246.74501.02616.04624.06615.02746.09865.00625.08369-.05623.29006-.37003.36255-.58754.01999-.10497-.02007-.21744-.05257-.29746l-.52117-1.02875c.0325-.0663.12375-.07751.17754-.08004.12619-.00374.22491.06005.33745.09255.11871.31754.1725.44373.46005.905.09621.15243.08995.345-.00251.53496-.11003.22508-.23376.43504-.3788.64622-.13245.13886-.33631.12505-.52124.14503h-.15251c-.45503.24507-.93499.40383-1.42373.55627-.21507.06751-.47752.02623-.64125-.11994-.1725-.1313-.24498-.3363-.35751-.5088-.1313-.16495-.43007-.00253-.495-.11254-.13-.21874-.24497-.41-.3675-.62751-.04127-.0737-.01634-.1587.06874-.17746.18867-.03998.37002-.07744.56251-.09369.17868-.01381.31754.0212.43625.15372.23125.26994.32371.63874.6675.82245.0975.05128.51376-.07751.73875-.18997.1313-.0788.28999-.19753.28999-.36873-.02006-.33752-.24994-.60752-.52749-.7988-.29121-.15251-.6012-.36376-.81254-.63368-.10497-.14504-.14-.32128-.19118-.48883-.01633-.05371-.08629-.04622-.11879-.01999-.11254.0988-.02495.3138.00747.42755.02632.09125.04753.15374-.00122.19372-.16373.13252-.43244.08125-.62011.07256-.42984-.02129-.81864-.19128-1.26733-.15259-.42877.01999-1.14754.28008-1.34125-.13497-.15876-.39619-.08506-.85495-.01259-1.26373 0-.04624-.04622-.07377-.08491-.08004-.03387-.01251-.08011.00627-.09254.04624-.10621.39628-.11497.84259-.2462 1.24634-.11131.33875-.39513.76744-.77133.95871-.33623.1712-.71252.2375-1.1087.26375-.72625.01373-1.47125.15129-1.91377.77873-.0325.05875-.03883.07622-.05126.13001-.02121.09002.06378.11375.10871.06247.49759-.5587 1.17005-.75996 1.88995-.73371.69887 0 1.38627-.11871 1.82138-.71251.11245-.13123.28365-.41626.28365-.41626l.23255.17876s-.11375.28374-.17868.41496c-.09506.18753-.27382.48378-.47638.59501-.14.0763-.38117.19753-.62744.3363-.20753.11873-.48119.13872-.7325.07249-.31624-.05882-.73875-.13749-1.04248.00748-.15877.09872-.29388.25627-.43625.37002-.14747.1162-.40252.27245-.66002.25749-.17875-.00999-.38879-.15251-.53498.00626-.18371.17868-.2375.47623-.48133.58876-.28367.15869-.60372 0-.89363-.02625l.00244-.01381c.05875-.26366.09872-.5487.27756-.7537.11245-.01251.21744-.0325.30365-.11254.11131-.09872.1976-.23125.27748-.35621.24383-.15121.53375-.27749.69252-.54124.11871-.25131.23133-.62247.31631-.70625.01748-.01625.04738-.03997.10003-.04631.05492-.00617.25734-.00991.43746-.0325.075-.00991.47501-.15121.67749-.33752.06622-.05989.08377-.15992.06005-.24368-.0238-.08507-.18875-.42755-.2375-.68626-.02503-.13001-.0325-.54749-.05379-.85251-.00496-.07378-.03746-.08378-.08507-.07249-.33997.0863-.68.17121-1.05622.11246-.5149-.06622-1.04995-.40245-1.24122-.91744-.1712-.44883-.13253-1.07627.19752-1.43256.31113-.38246.7-.67994 1.06995-.99.05883-.04622.0975-.09246.09003-.15869-.01121-.10131-.0975-.16502-.16373-.19126-.23758-.05257-.48752.02624-.71876-.07249-.3962-.14503-.71251-.52253-.765-.9375-.01374-.18508.04996-.48126.11879-.50255.04997-.01495.30372.21249.45745.29252.16129.08247.3238.13375.70252.22881" fill="#e30f4d"/><path d="m357.87105 521.47389c.15625.03867.68619.15495.91499.40619.20996.23125.24003.65872.04501.92125-.27381.36621-.76133.69496-1.1325 1.0662-.29381.29381-.42633.69001-.31502 1.09878.11879.35752.47501.61379.84504.64125.56747.01252 1.00372-.27122 1.45866-.53497.45631-.32371.87882-.7463 1.4138-.87875.33622-.12496.74501-.08499 1.06872-.19753.34882-.12122.65384-.38253.94384-.64742.32364-.26375.67123-.42634 1.23496-.42634.27749 0 .26628-.04624.7425-.4837.43754-.40122 1.04004-.44876 1.55503-.68001.35621-.11879.66001-.3762.99624-.55504.32372-.1387.77126-.15999 1.10252-.03997.21996.07995.30999.12252.62745.33752l1.56371 1.29998c.03243.0325.07623.07255.11377.11375.06247.06622.92368 1.07506 1.28005 1.65497.11871.205.21126.50499.22125.63629.06501.88622.31998 1.66747.60372 2.44125.0238.065.23124.20371.31624.33005.24497.34241.40252.77874.79879 1.00997 0 0 .12748.065.23751.11872.03501.01877.04501.09751-.03503.1162-.42258.09255-.91255-.25368-1.08871-.57625-.205-.37239-.38384-.62867-.72631-.74745l-.01878.01876c.04624.10629.12757.20249.18624.29747.13008.21127.25131.44877.31631.66628.0737.24376.3437.4287.5613.56755l.29122.15495c.1062.0512.09002.1262.01746.14504l-.04875.00373c-.52124.01374-.96-.15128-1.31623-.53505-.08513-.09246-.19752-.17753-.32371-.17753-.2301.20386-.46127.40886-.77125.42877-.31754-.05241-.68009-.05866-.9713.06623-.26375.09255-.52757.205-.82496.21758-.13879 0-.29625-.0663-.34256-.19752 0-.16503-.12619-.36376-.01999-.53498l.19752-.29006c0-.03997-.02625-.0737-.06622-.07996-.08515-.01251-.21134.1262-.24384-.02006.01999-.29625.3038-.47493.50133-.67993.04623-.23751.13877-.44121.30365-.62622 0-.02633-.02617-.05379-.05242-.0663-.24505.03997-.49507.10497-.76637.09872-.2111.11254-.47485.19126-.72609.11254-.05256-.0325-.04012-.11003-.01876-.13879.25734-.36125.36995-.82122.28984-1.27372-.00489-.03128-.01862-.06127-.05989-.06127-.03876-.00122-.05998.04258-.06494.07378-.07506.41374-.18767.76249-.41625 1.11-.09377.1413-.44259.16502-.6675.2375-.05256.02625-.11139.07249-.11139.13871-.0074.14503.07248.26749.14252.38254 0 0 .45631.755.47508.89874.01618.12505-.0438.52002-.10246.74501.02616.04624.06615.02746.09865.00625.08369-.05623.29006-.37003.36255-.58754.01999-.10497-.02007-.21744-.05257-.29746l-.52117-1.02875c.0325-.0663.12375-.07751.17754-.08004.12619-.00374.22491.06005.33745.09255.11871.31754.1725.44373.46005.905.09621.15243.08995.345-.00251.53496-.11003.22508-.23376.43504-.3788.64622-.13245.13886-.33631.12505-.52124.14503h-.15251c-.45503.24507-.93499.40383-1.42373.55627-.21507.06751-.47752.02623-.64125-.11994-.1725-.1313-.24498-.3363-.35751-.5088-.1313-.16495-.43007-.00253-.495-.11254-.13-.21874-.24497-.41-.3675-.62751-.04127-.0737-.01634-.1587.06874-.17746.18867-.03998.37002-.07744.56251-.09369.17868-.01381.31754.0212.43625.15372.23125.26994.32371.63874.6675.82245.0975.05128.51376-.07751.73875-.18997.1313-.0788.28999-.19753.28999-.36873-.02006-.33752-.24994-.60752-.52749-.7988-.29121-.15251-.6012-.36376-.81254-.63368-.10497-.14504-.14-.32128-.19118-.48883-.01633-.05371-.08629-.04622-.11879-.01999-.11254.0988-.02495.3138.00747.42755.02632.09125.04753.15374-.00122.19372-.16373.13252-.43244.08125-.62011.07256-.42984-.02129-.81864-.19128-1.26733-.15259-.42877.01999-1.14754.28008-1.34125-.13497-.15876-.39619-.08506-.85495-.01259-1.26373 0-.04624-.04622-.07377-.08491-.08004-.03387-.01251-.08011.00627-.09254.04624-.10621.39628-.11497.84259-.2462 1.24634-.11131.33875-.39513.76744-.77133.95871-.33623.1712-.71252.2375-1.1087.26375-.72625.01373-1.47125.15129-1.91377.77873-.0325.05875-.03883.07622-.05126.13001-.02121.09002.06378.11375.10871.06247.49759-.5587 1.17005-.75996 1.88995-.73371.69887 0 1.38627-.11871 1.82138-.71251.11245-.13123.28365-.41626.28365-.41626l.23255.17876s-.11375.28374-.17868.41496c-.09506.18753-.27382.48378-.47638.59501-.14.0763-.38117.19753-.62744.3363-.20753.11873-.48119.13872-.7325.07249-.31624-.05882-.73875-.13749-1.04248.00748-.15877.09872-.29388.25627-.43625.37002-.14747.1162-.40252.27245-.66002.25749-.17875-.00999-.38879-.15251-.53498.00626-.18371.17868-.2375.47623-.48133.58876-.28367.15869-.60372 0-.89363-.02625l.00244-.01381c.05875-.26366.09872-.5487.27756-.7537.11245-.01251.21744-.0325.30365-.11254.11131-.09872.1976-.23125.27748-.35621.24383-.15121.53375-.27749.69252-.54124.11871-.25131.23133-.62247.31631-.70625.01748-.01625.04738-.03997.10003-.04631.05492-.00617.25734-.00991.43746-.0325.075-.00991.47501-.15121.67749-.33752.06622-.05989.08377-.15992.06005-.24368-.0238-.08507-.18875-.42755-.2375-.68626-.02503-.13001-.0325-.54749-.05379-.85251-.00496-.07378-.03746-.08378-.08507-.07249-.33997.0863-.68.17121-1.05622.11246-.5149-.06622-1.04995-.40245-1.24122-.91744-.1712-.44883-.13253-1.07627.19752-1.43256.31113-.38246.7-.67994 1.06995-.99.05883-.04622.0975-.09246.09003-.15869-.01121-.10131-.0975-.16502-.16373-.19126-.23758-.05257-.48752.02624-.71876-.07249-.3962-.14503-.71251-.52253-.765-.9375-.01374-.18508.04996-.48126.11879-.50255.04997-.01495.30372.21249.45745.29252.16129.08247.3238.13375.70252.22881z" fill="none" stroke="#e30f4d" stroke-miterlimit="3.864" stroke-width=".175013"/><path d="m383.01342 521.41133c.20392.1387.29632.41626.54763.475.42252.09247.84488.19127 1.22742.38253.27748.1387.55245.35744.82375.55123.2137.15244.45761.1088.70762.19501.36369.09246.66116.36995.98374.5812.42999.33624 1.02371.28381 1.50626.50134.76493.2449 1.38498.8387 2.0987 1.19491.36988.19874.92376.27748 1.29371.05256.24384-.17753.40253-.40877.34997-.72631-.13863-.77874-1.00365-1.20125-1.41243-1.84746-.08621-.15876-.14496-.37003-.08126-.56.13252-.3875.54375-.60249.88631-.7212.28496-.09759.61371-.10506.8712-.25758.09239-.05248.16876-.13373.2375-.19745.05371-.04875.06005.05875.07249.09873.08002.4625-.00619.9375-.40879 1.20751-.15244.1062-.33752.14999-.52116.19874-.1413.03624-.46379.08621-.44251.205.02251.12749.15747.21744.2575.30374.53497.44875 1.02996 1.01622 1.09496 1.70875.02.53497-.34881 1.0038-.81123 1.22878-.33752.14497-.77247.19745-1.1425.09248-.09872-.01374-.2575-.1062-.32387.01869-.02609.14625.04516.27503.08011.41.06249.24636.0325.57381-.04631.81878-.0338.19128-.2375.42253-.05249.61997.17754.26375.52131.1851.80498.23125.15885.02632.205.19752.25123.31753.05264.14504.12132.46632.18135.59128.05623.1162.26123.23995.42504.43121.19866.21134.36369.57504.69991.55504.10629.23751.17884.47249.21134.7438l-.04631.00991c-.27 0-.6237.08873-.8287-.11001-.26886-.24499-.3125-.58365-.65003-.47249-.14496.12009-.36255.15876-.54122.08629-.16503-.05875-.2839-.21751-.43511-.3038-.46242-.33745-1.06995-.50874-1.67-.37621-.34363.09247-.61493-.14625-.89119-.31128-.35744-.15121-.46249-.54124-.54123-.8712 0 0-.07377-.3775-.06622-.40879.00747-.0325.01366-.04997.07247-.08628.0512-.0312.07249.01381.07249.01381.14755.40122.58754.99624 1.1087 1.16875.47509.19126.92506-.05379 1.4325.03875.48248.06005.85884.37002 1.23504.65995.0325.00755.05867-.02625.07256-.05243v-.0325c-.43625-.55503-1.05004-.84502-1.76262-.79253-.58747.12497-1.18118-.07248-1.51863-.57373-.18501-.28382-.33005-.58755-.38254-.92507-.0525-.38247-.13871-.80498-.26375-1.15494-.02502-.06004-.07377-.07629-.11497-.05379-.04128.02129-.03624.05875-.03754.08004-.00122.02121.16495.81252.0338 1.20125-.09255.3038-.41016.42244-.7.43625-.29129.01999-.56137-.04006-.85876-.04006-.70008-.02624-1.30005.25757-2.02011.1851.06003-.16503.15632-.34753.12131-.53628-.01496-.05996-.06875-.06379-.12131-.03754-.13245.08499-.11864.25002-.19738.36248-.15259.25749-.43625.47507-.72631.53505-.205.15869-.40245.37627-.56748.56755-.0663.05866-.0663.16495-.04631.25124.14504.3424.53505.38871.85121.475.15137.01251.29763-.04005.3701-.17128.13115-.21126.15748-.55496.46875-.59502h.67245c.06509.0087.13253.01626.13505.10246.00129.03625-.01496.07126-.03625.10255-.10246.15625-.20995.41625-.40877.54747-.10506.0338-.25124-.00617-.32371.09248-.03877.23125-.0988.4763-.32998.60249-.16517.1513-.42877.07881-.61379.01885-.35621-.13878-.73875-.20508-1.09626-.32379-.15762-.04624-.21751-.23751-.37629-.27756-.15755-.03998-.33378.08881-.45501-.05249-.07996-.09369-.12382-.28496-.17616-.46624-.0325-.10994-.075-.25375-.10133-.38497-.02616-.11247.00757-.19249.03999-.29755l.49506-.89744c.0399-.0525.07623-.12124.13863-.13879.04257-.01244.30762.10254.33516.13879.01488.01999.00748.05119-.03006.11001-.09758.15495-.4776.74128-.4776.74128-.11108.25741-.00359.54122.11261.7524.01503.02755.04005.05257.0663.04006-.01251-.15878-.0325-.31754 0-.48256.03243-.14497.12619-.28999.21736-.42244l.40375-.59373c.04639-.10627.0325-.25748-.03365-.35003-.17746-.17875-.42877-.22499-.57372-.45502-.33753-.44242-.36378-.95748-.40261-1.51878-.0074-.04615-.0399-.1062-.09239-.11872-.04005-.01372-.07255.0325-.09255.05883-.10628.35744-.03998.8062.0525 1.12869.06622.2575.17127.49622.28381.73372.01373.04624-.02006.09255-.06012.10498-.26375.02007-.53368-.00618-.7975-.0325-.34997-.05242-.62119-.35118-.905-.55618l-.07363.07118c.07363.37636.51621.60378.64736.96633.08629.28367.35759.50874.42259.81247 0 .04631-.0325.09253-.07247.11871-.09248.02624-.19135-.0399-.27627.01251-.01373.16503.09125.33753.01877.50873-.09262.14511-.22377.31761-.40253.32378-.35011-.11878-.68626-.26375-1.03622-.36995-.25139-.02006-.50125.01374-.7389.04617-.22484-.04617-.38362-.24369-.55497-.3762-.05241-.01374-.10612-.02-.14488.02006-.39002.38994-.80635.8049-1.38627.77872-.03387-.00632-.07377-.05378-.07377-.08628l.01381-.02624c.25741-.22378.56121-.46875.66741-.78499.07882-.26375.31633-.45502.39505-.72006.00612-.04243.00245-.06119-.0325-.07874-.04508-.00619-.09246.03998-.09246.03998-.27756.29625-.495.60631-.7.93002-.21141.21751-.52139.34378-.83755.26375-.03997-.02625-.03997-.08491-.01999-.11871 1.19499-.7325 1.33248-2.03881 1.66374-3.22754.23125-.78621.3962-1.59752 1.01624-2.23747.92376-1.00999 2.07877-1.61752 3.08997-2.50253.1513-.13251.34883-.27747.54757-.29121.47501-.04005.81871.1725 1.1686.44999" fill="#e30f4d"/><path d="m383.01342 521.41133c.20392.1387.29632.41626.54763.475.42252.09247.84488.19127 1.22742.38253.27748.1387.55245.35744.82375.55123.2137.15244.45761.1088.70762.19501.36369.09246.66116.36995.98374.5812.42999.33624 1.02371.28381 1.50626.50134.76493.2449 1.38498.8387 2.0987 1.19491.36988.19874.92376.27748 1.29371.05256.24384-.17753.40253-.40877.34997-.72631-.13863-.77874-1.00365-1.20125-1.41243-1.84746-.08621-.15876-.14496-.37003-.08126-.56.13252-.3875.54375-.60249.88631-.7212.28496-.09759.61371-.10506.8712-.25758.09239-.05248.16876-.13373.2375-.19745.05371-.04875.06005.05875.07249.09873.08002.4625-.00619.9375-.40879 1.20751-.15244.1062-.33752.14999-.52116.19874-.1413.03624-.46379.08621-.44251.205.02251.12749.15747.21744.2575.30374.53497.44875 1.02996 1.01622 1.09496 1.70875.02.53497-.34881 1.0038-.81123 1.22878-.33752.14497-.77247.19745-1.1425.09248-.09872-.01374-.2575-.1062-.32387.01869-.02609.14625.04516.27503.08011.41.06249.24636.0325.57381-.04631.81878-.0338.19128-.2375.42253-.05249.61997.17754.26375.52131.1851.80498.23125.15885.02632.205.19752.25123.31753.05264.14504.12132.46632.18135.59128.05623.1162.26123.23995.42504.43121.19866.21134.36369.57504.69991.55504.10629.23751.17884.47249.21134.7438l-.04631.00991c-.27 0-.6237.08873-.8287-.11001-.26886-.24499-.3125-.58365-.65003-.47249-.14496.12009-.36255.15876-.54122.08629-.16503-.05875-.2839-.21751-.43511-.3038-.46242-.33745-1.06995-.50874-1.67-.37621-.34363.09247-.61493-.14625-.89119-.31128-.35744-.15121-.46249-.54124-.54123-.8712 0 0-.07377-.3775-.06622-.40879.00747-.0325.01366-.04997.07247-.08628.0512-.0312.07249.01381.07249.01381.14755.40122.58754.99624 1.1087 1.16875.47509.19126.92506-.05379 1.4325.03875.48248.06005.85884.37002 1.23504.65995.0325.00755.05867-.02625.07256-.05243v-.0325c-.43625-.55503-1.05004-.84502-1.76262-.79253-.58747.12497-1.18118-.07248-1.51863-.57373-.18501-.28382-.33005-.58755-.38254-.92507-.0525-.38247-.13871-.80498-.26375-1.15494-.02502-.06004-.07377-.07629-.11497-.05379-.04128.02129-.03624.05875-.03754.08004-.00122.02121.16495.81252.0338 1.20125-.09255.3038-.41016.42244-.7.43625-.29129.01999-.56137-.04006-.85876-.04006-.70008-.02624-1.30005.25757-2.02011.1851.06003-.16503.15632-.34753.12131-.53628-.01496-.05996-.06875-.06379-.12131-.03754-.13245.08499-.11864.25002-.19738.36248-.15259.25749-.43625.47507-.72631.53505-.205.15869-.40245.37627-.56748.56755-.0663.05866-.0663.16495-.04631.25124.14504.3424.53505.38871.85121.475.15137.01251.29763-.04005.3701-.17128.13115-.21126.15748-.55496.46875-.59502h.67245c.06509.0087.13253.01626.13505.10246.00129.03625-.01496.07126-.03625.10255-.10246.15625-.20995.41625-.40877.54747-.10506.0338-.25124-.00617-.32371.09248-.03877.23125-.0988.4763-.32998.60249-.16517.1513-.42877.07881-.61379.01885-.35621-.13878-.73875-.20508-1.09626-.32379-.15762-.04624-.21751-.23751-.37629-.27756-.15755-.03998-.33378.08881-.45501-.05249-.07996-.09369-.12382-.28496-.17616-.46624-.0325-.10994-.075-.25375-.10133-.38497-.02616-.11247.00757-.19249.03999-.29755l.49506-.89744c.0399-.0525.07623-.12124.13863-.13879.04257-.01244.30762.10254.33516.13879.01488.01999.00748.05119-.03006.11001-.09758.15495-.4776.74128-.4776.74128-.11108.25741-.00359.54122.11261.7524.01503.02755.04005.05257.0663.04006-.01251-.15878-.0325-.31754 0-.48256.03243-.14497.12619-.28999.21736-.42244l.40375-.59373c.04639-.10627.0325-.25748-.03365-.35003-.17746-.17875-.42877-.22499-.57372-.45502-.33753-.44242-.36378-.95748-.40261-1.51878-.0074-.04615-.0399-.1062-.09239-.11872-.04005-.01372-.07255.0325-.09255.05883-.10628.35744-.03998.8062.0525 1.12869.06622.2575.17127.49622.28381.73372.01373.04624-.02006.09255-.06012.10498-.26375.02007-.53368-.00618-.7975-.0325-.34997-.05242-.62119-.35118-.905-.55618l-.07363.07118c.07363.37636.51621.60378.64736.96633.08629.28367.35759.50874.42259.81247 0 .04631-.0325.09253-.07247.11871-.09248.02624-.19135-.0399-.27627.01251-.01373.16503.09125.33753.01877.50873-.09262.14511-.22377.31761-.40253.32378-.35011-.11878-.68626-.26375-1.03622-.36995-.25139-.02006-.50125.01374-.7389.04617-.22484-.04617-.38362-.24369-.55497-.3762-.05241-.01374-.10612-.02-.14488.02006-.39002.38994-.80635.8049-1.38627.77872-.03387-.00632-.07377-.05378-.07377-.08628l.01381-.02624c.25741-.22378.56121-.46875.66741-.78499.07882-.26375.31633-.45502.39505-.72006.00612-.04243.00245-.06119-.0325-.07874-.04508-.00619-.09246.03998-.09246.03998-.27756.29625-.495.60631-.7.93002-.21141.21751-.52139.34378-.83755.26375-.03997-.02625-.03997-.08491-.01999-.11871 1.19499-.7325 1.33248-2.03881 1.66374-3.22754.23125-.78621.3962-1.59752 1.01624-2.23747.92376-1.00999 2.07877-1.61752 3.08997-2.50253.1513-.13251.34883-.27747.54757-.29121.47501-.04005.81871.1725 1.1686.44999z" fill="none" stroke="#e30f4d" stroke-miterlimit="3.864" stroke-width=".175013"/><path d="m366.83483 529.14509c.05126.10994.1075.13747.02242.20996-.15243.11879-.39367.20751-.52871.16503-.08759-.02755-.17495-.33502-.27749-.48249-.0663-.0962-.20751-.16876-.17746-.2375.01626-.03624.075-.03624.075-.03624.21119 0 .40619-.01251.61745-.0425.18868-.02746.15625.20744.26879.42374" fill="#e30f4d"/><path d="m366.83483 529.14509c.05126.10994.1075.13747.02242.20996-.15243.11879-.39367.20751-.52871.16503-.08759-.02755-.17495-.33502-.27749-.48249-.0663-.0962-.20751-.16876-.17746-.2375.01626-.03624.075-.03624.075-.03624.21119 0 .40619-.01251.61745-.0425.18868-.02746.15625.20744.26879.42374z" fill="none" stroke="#e30f4d" stroke-miterlimit="3.864" stroke-width=".175013"/><path d="m383.73607 528.89889c-.02624.18494-.08499.36995-.15137.54122-.05996.11872-.23612.08622-.33615.06623-.1326-.02625-.30372-.05875-.32378-.22378-.01993-.15868.13251-.42251.13251-.42251.15381-.02869.27252.01625.56-.01999.05379-.00747.13122.00253.11879.05883" fill="#e30f4d"/><path d="m383.73607 528.89889c-.02624.18494-.08499.36995-.15137.54122-.05996.11872-.23612.08622-.33615.06623-.1326-.02625-.30372-.05875-.32378-.22378-.01993-.15868.13251-.42251.13251-.42251.15381-.02869.27252.01625.56-.01999.05379-.00747.13122.00253.11879.05883z" fill="none" stroke="#e30f4d" stroke-miterlimit="3.864" stroke-width=".175013"/><path d="m357.17105 529.19261c-.00877.02374-.2301.41872-.44121.52499-.11756.05996-.19256.01876-.24261-.02251-.01869-.01495-.1162-.12504-.1162-.12504-.03875-.04502-.01243-.18372.04876-.23491.15999-.13383.30754-.22255.45624-.3238.03875-.02624.10497-.03875.14502-.00625.09378.075.16999.13245.15.18752" fill="#e30f4d"/><path d="m357.17105 529.19261c-.00877.02374-.2301.41872-.44121.52499-.11756.05996-.19256.01876-.24261-.02251-.01869-.01495-.1162-.12504-.1162-.12504-.03875-.04502-.01243-.18372.04876-.23491.15999-.13383.30754-.22255.45624-.3238.03875-.02624.10497-.03875.14502-.00625.09378.075.16999.13245.15.18752z" fill="none" stroke="#e30f4d" stroke-miterlimit="3.864" stroke-width=".175013"/><path d="m393.02357 529.05514c.10375.08995.36117.21744.48247.39245.04373.06119-.05996.17625-.11879.23002-.06133.05745-.12505.09248-.21751.09248-.09239-.00626-.16999-.065-.23117-.13756-.11879-.14244-.29373-.34119-.28885-.42869.00252-.05501.21637-.27879.34882-.16748z" fill="#e30f4d"/><path d="m393.02357 529.05514c.10375.08995.36117.21744.48247.39245.04373.06119-.05996.17625-.11879.23002-.06133.05745-.12505.09248-.21751.09248-.09239-.00626-.16999-.065-.23117-.13756-.11879-.14244-.29373-.34119-.28885-.42869.00252-.05501.21637-.27879.34882-.16748z" fill="none" stroke="#e30f4d" stroke-miterlimit="3.864" stroke-width=".175013"/><path d="m356.06983 530.83508c-.02633.00747-.42374-.12375-.4451-.14627-.02495-.02372-.00993-.08872.01632-.11878.11254-.12489.12245-.17364.15129-.56114.00619-.08255.13611-.22629.24491-.2713.07629-.03129.31372.25375.3038.28374-.12627.35255-.22247.80001-.27122.81375" fill="#e30f4d"/><path d="m356.06983 530.83508c-.02633.00747-.42374-.12375-.4451-.14627-.02495-.02372-.00993-.08872.01632-.11878.11254-.12489.12245-.17364.15129-.56114.00619-.08255.13611-.22629.24491-.2713.07629-.03129.31372.25375.3038.28374-.12627.35255-.22247.80001-.27122.81375z" fill="none" stroke="#e30f4d" stroke-miterlimit="3.864" stroke-width=".175013"/><path d="m394.07725 530.35633c.02633.11253.19632.35126.08255.3862l-.42121.13886c-.05135.01495-.07751-.13886-.07751-.13886-.05379-.24117-.09499-.41618-.1738-.65498-.02244-.15251.05752-.22377.19996-.29496.1226-.06126.26619.02121.30876.11994.04875.11376.04875.28877.08125.4438" fill="#e30f4d"/><path d="m394.07725 530.35633c.02633.11253.19632.35126.08255.3862l-.42121.13886c-.05135.01495-.07751-.13886-.07751-.13886-.05379-.24117-.09499-.41618-.1738-.65498-.02244-.15251.05752-.22377.19996-.29496.1226-.06126.26619.02121.30876.11994.04875.11376.04875.28877.08125.4438z" fill="none" stroke="#e30f4d" stroke-miterlimit="3.864" stroke-width=".175013"/><path d="m381.9173 522.64508c.05249.08621.00625.16502-.04638.21751-.27115.25749-.6012.52124-.79858.83244-.07262.0988-.12512.21133-.17875.32257-.00634.01374-.02.03998-.04631.01374-.03006-.02999-.0087-.30876.05379-.47501.13618-.36995.44868-.71373.765-.95124.07247-.0463.21125-.05874.25123.03999" fill="#fbbf15"/><path d="m381.9173 522.64508c.05249.08621.00625.16502-.04638.21751-.27115.25749-.6012.52124-.79858.83244-.07262.0988-.12512.21133-.17875.32257-.00634.01374-.02.03998-.04631.01374-.03006-.02999-.0087-.30876.05379-.47501.13618-.36995.44868-.71373.765-.95124.07247-.0463.21125-.05874.25123.03999z" fill="none" stroke="#fbbf15" stroke-miterlimit="3.864" stroke-width=".175013"/><path d="m368.82732 523.43014c.18242.37369.06371.90119.03876.98869-.0113.04006-.0425.05501-.05128.0087-.08621-.44243-.13496-.6337-.22758-.82245-.0975-.19623-.25742-.28244-.16617-.43252.02617-.04248.11375-.06118.17502-.0325.09865.04754.17868.18502.23125.29008" fill="#fbbf15"/><path d="m368.82732 523.43014c.18242.37369.06371.90119.03876.98869-.0113.04006-.0425.05501-.05128.0087-.08621-.44243-.13496-.6337-.22758-.82245-.0975-.19623-.25742-.28244-.16617-.43252.02617-.04248.11375-.06118.17502-.0325.09865.04754.17868.18502.23125.29008z" fill="none" stroke="#fbbf15" stroke-miterlimit="3.864" stroke-width=".175013"/><path d="m371.91608 526.13133c.21751.24376.36376.51376.28999.85121-.0325.0663-.02624.1651-.11132.18501-.03997.01259-.07247-.01374-.07247-.05371-.01381-.17746-.01381-.36248-.11886-.50751-.11987-.12627-.24499-.34378-.43618-.34378-.13252.03998-.23117.19126-.30999.29755-.00617.01244-.02616.01244-.03997.00618-.07248-.18494.00877-.34874.07744-.50118.06637-.14625.14-.4425.39131-.33752.17129.09247.205.27756.33005.40375" fill="#fbbf15"/><path d="m371.91608 526.13133c.21751.24376.36376.51376.28999.85121-.0325.0663-.02624.1651-.11132.18501-.03997.01259-.07247-.01374-.07247-.05371-.01381-.17746-.01381-.36248-.11886-.50751-.11987-.12627-.24499-.34378-.43618-.34378-.13252.03998-.23117.19126-.30999.29755-.00617.01244-.02616.01244-.03997.00618-.07248-.18494.00877-.34874.07744-.50118.06637-.14625.14-.4425.39131-.33752.17129.09247.205.27756.33005.40375z" fill="none" stroke="#fbbf15" stroke-miterlimit="3.864" stroke-width=".175013"/><path d="m379.23092 526.46138c.01266.03867.00762.07865-.00619.11871-.02616.0325-.0737.07874-.11993.04622-.13252-.04622-.11246-.25122-.27748-.23871-.12497-.00626-.1976.10001-.29625.15243-.1725.1513-.40253.31006-.4425.54131-.0325.08621-.01999.205-.09248.25124-.04639.01251-.09887-.02625-.09887-.06623-.02617-.3038.07256-.59501.29632-.7988.21874-.17875.37003-.42251.54879-.62751.04371-.04373.14251.05126.2111.12504.04882.05378.20386.31753.27749.4963" fill="#fbbf15"/><path d="m379.23092 526.46138c.01266.03867.00762.07865-.00619.11871-.02616.0325-.0737.07874-.11993.04622-.13252-.04622-.11246-.25122-.27748-.23871-.12497-.00626-.1976.10001-.29625.15243-.1725.1513-.40253.31006-.4425.54131-.0325.08621-.01999.205-.09248.25124-.04639.01251-.09887-.02625-.09887-.06623-.02617-.3038.07256-.59501.29632-.7988.21874-.17875.37003-.42251.54879-.62751.04371-.04373.14251.05126.2111.12504.04882.05378.20386.31753.27749.4963z" fill="none" stroke="#fbbf15" stroke-miterlimit="3.864" stroke-width=".175013"/><path d="m371.49974 528.40755c.01381.12628-.00617.32501-.09246.35751-.12246.04502-.26498.06753-.40245.04632-.0438-.00755-.07874-.0338-.0663-.07255.05989-.17877.23131-.35744.42374-.39628.05256 0 .12496-.00747.13747.065" fill="#fbbf15"/><path d="m371.49974 528.40755c.01381.12628-.00617.32501-.09246.35751-.12246.04502-.26498.06753-.40245.04632-.0438-.00755-.07874-.0338-.0663-.07255.05989-.17877.23131-.35744.42374-.39628.05256 0 .12496-.00747.13747.065z" fill="none" stroke="#fbbf15" stroke-miterlimit="3.864" stroke-width=".175013"/><path d="m379.0198 528.52756s.12498.1638.065.27c-.04875.08622-.23505.07127-.31623.01382-.0975-.07004-.15252-.18883-.16007-.33379-.00258-.03371 0-.0637.04128-.0962.0763-.03503.27756.03364.37002.14617" fill="#fbbf15"/><path d="m379.0198 528.52756s.12498.1638.065.27c-.04875.08622-.23505.07127-.31623.01382-.0975-.07004-.15252-.18883-.16007-.33379-.00258-.03371 0-.0637.04128-.0962.0763-.03503.27756.03364.37002.14617z" fill="none" stroke="#fbbf15" stroke-miterlimit="3.864" stroke-width=".175013"/></g></svg>