<?xml version="1.0" encoding="UTF-8"?>
<svg id="Capa_1" data-name="Capa 1" xmlns="http://www.w3.org/2000/svg" xmlns:xlink="http://www.w3.org/1999/xlink" viewBox="0 0 135 135">
  <defs>
    <style>
      .cls-1 {
        fill: url(#linear-gradient);
      }

      .cls-1, .cls-2, .cls-3, .cls-4 {
        stroke-width: 0px;
      }

      .cls-2 {
        fill: #e7acda;
      }

      .cls-3 {
        fill: #fff;
      }

      .cls-4 {
        fill: #ff97e6;
      }
    </style>
    <linearGradient id="linear-gradient" x1="67.5" y1="135" x2="67.5" y2="0" gradientUnits="userSpaceOnUse">
      <stop offset="0" stop-color="#eb00d6"/>
      <stop offset="1" stop-color="#f53ee7"/>
    </linearGradient>
  </defs>
  <circle class="cls-1" cx="67.5" cy="67.5" r="67.5"/>
  <path class="cls-4" d="M45.69,72.43l8.01,22.17s1,2.07,2.07,2.07,17.02-16.59,17.02-16.59l17.73-34.25-44.55,20.88-.29,5.72Z"/>
  <path class="cls-2" d="M56.31,78.12l-1.54,16.34s-.64,5.01,4.36,0c5.01-5.01,9.8-8.87,9.8-8.87l-12.62-7.47Z"/>
  <path class="cls-3" d="M45.84,73.22l-16.47-5.37s-1.97-.8-1.33-2.61c.13-.37.39-.69,1.18-1.24,3.65-2.54,67.56-25.52,67.56-25.52,0,0,1.8-.61,2.87-.2.49.18.8.39,1.06,1.16.1.28.15.87.14,1.45,0,.42-.06.82-.1,1.43-.39,6.28-12.04,53.15-12.04,53.15,0,0-.7,2.74-3.19,2.84-.91.03-2.02-.15-3.34-1.29-4.9-4.22-21.84-15.6-25.58-18.1-.21-.14-.27-.32-.31-.5-.05-.26.23-.59.23-.59,0,0,29.49-26.21,30.27-28.96.06-.21-.17-.32-.48-.23-1.96.72-35.91,22.16-39.66,24.53-.22.14-.83.05-.83.05Z"/>
</svg>