<?xml version="1.0" encoding="UTF-8"?>
<svg id="Capa_1" data-name="Capa 1" xmlns="http://www.w3.org/2000/svg" xmlns:xlink="http://www.w3.org/1999/xlink" viewBox="0 0 135 135">
  <defs>
    <style>
      .cls-1 {
        fill: url(#linear-gradient);
      }

      .cls-1, .cls-2 {
        stroke-width: 0px;
      }

      .cls-2 {
        fill: #fff;
        fill-rule: evenodd;
      }
    </style>
    <linearGradient id="linear-gradient" x1="67.5" y1="125.19" x2="67.5" y2="-9.81" gradientUnits="userSpaceOnUse">
      <stop offset="0" stop-color="#c86cd0"/>
      <stop offset="1" stop-color="#ff97ff"/>
    </linearGradient>
  </defs>
  <circle class="cls-1" cx="67.5" cy="67.5" r="67.5"/>
  <g id="WA_Logo" data-name="WA Logo">
    <path class="cls-2" d="M99.97,35.86c-8.08-8.09-18.84-12.55-30.29-12.55-23.6,0-42.81,19.2-42.82,42.8,0,7.54,1.97,14.91,5.72,21.4l-6.07,22.18,22.7-5.95c6.25,3.41,13.3,5.21,20.46,5.21h.02s0,0,0,0c23.6,0,42.81-19.2,42.82-42.81,0-11.44-4.45-22.19-12.53-30.28ZM69.68,101.72h-.01c-6.39,0-12.65-1.72-18.11-4.96l-1.3-.77-13.47,3.53,3.6-13.13-.85-1.35c-3.56-5.66-5.44-12.21-5.44-18.93,0-19.62,15.97-35.58,35.61-35.58,9.51,0,18.44,3.71,25.16,10.43,6.72,6.73,10.42,15.66,10.41,25.17,0,19.62-15.97,35.58-35.59,35.58ZM89.2,75.07c-1.07-.54-6.33-3.12-7.31-3.48-.98-.36-1.69-.54-2.41.54-.71,1.07-2.76,3.48-3.39,4.19-.62.71-1.25.8-2.32.27-1.07-.54-4.52-1.66-8.6-5.31-3.18-2.84-5.33-6.34-5.95-7.41s-.07-1.65.47-2.18c.48-.48,1.07-1.25,1.6-1.87.53-.62.71-1.07,1.07-1.78.36-.71.18-1.34-.09-1.87s-2.41-5.8-3.3-7.94c-.87-2.09-1.75-1.8-2.41-1.84-.62-.03-1.34-.04-2.05-.04s-1.87.27-2.85,1.34c-.98,1.07-3.74,3.66-3.74,8.92s3.83,10.35,4.37,11.06c.53.71,7.54,11.52,18.28,16.15,2.55,1.1,4.55,1.76,6.1,2.25,2.56.81,4.9.7,6.74.42,2.06-.31,6.33-2.59,7.22-5.09.89-2.5.89-4.64.62-5.09-.27-.45-.98-.71-2.05-1.25Z"/>
  </g>
</svg>